<svg width="32" height="32" viewBox="0 0 32 32" fill="none" xmlns="http://www.w3.org/2000/svg">
<g clip-path="url(#clip0_2016_112)">
<path d="M28.3467 17.0906H23.2575V14.546H28.3467V17.0906ZM28.3467 18.5446H23.2575V21.0892H28.3467V18.5446ZM28.3467 6.54871H23.2575V9.09327H28.3467V6.54871ZM28.3467 10.5473H23.2575V13.0919H28.3467V10.5473ZM28.3467 22.5432H23.2575V25.0878H28.3467V22.5432ZM31.8618 27.5597C31.7164 28.3158 30.8076 28.334 30.2006 28.3595H18.8954V31.631H16.6379L0 28.7229V3.28077L16.7361 0.369019H18.8954V3.26621H29.8116C30.426 3.29164 31.1021 3.24802 31.6364 3.61514C32.0109 4.15314 31.9746 4.83658 32 5.45452L31.9854 24.379C31.9673 25.4368 32.0836 26.5165 31.8618 27.5597ZM13.3299 21.8562C12.3267 19.8206 11.3053 17.7994 10.3056 15.7637C11.2943 13.7826 12.2686 11.7942 13.2391 9.80577C12.4139 9.84577 11.5888 9.89664 10.7673 9.95483C10.1529 11.4488 9.43675 12.9029 8.95694 14.4478C8.50981 12.9901 7.91731 11.587 7.37569 10.1656C6.57594 10.2093 5.77619 10.2565 4.9765 10.3038C5.81981 12.165 6.71775 14.0006 7.53562 15.8728C6.57231 17.6903 5.67081 19.5334 4.73656 21.3618C5.53263 21.3945 6.32875 21.4273 7.12481 21.4381C7.69194 19.9914 8.39713 18.5991 8.8915 17.1233C9.335 18.7082 10.0874 20.1731 10.7054 21.689C11.5815 21.7508 12.4539 21.8053 13.3299 21.8562ZM30.2663 4.99264H18.8954V6.54871H21.8035V9.09327H18.8954V10.5473H21.8035V13.0919H18.8954V14.546H21.8035V17.0906H18.8954V18.5446H21.8035V21.0892H18.8954V22.5432H21.8035V25.0878H18.8954V26.7689H30.2663V4.99264Z" fill="#5F2EEA"/>
</g>
<defs>
<clipPath id="clip0_2016_112">
<rect width="32" height="32" fill="white"/>
</clipPath>
</defs>
</svg>
